<?xml version="1.0" encoding="UTF-8" standalone="no"?>
<!DOCTYPE svg PUBLIC "-//W3C//DTD SVG 1.1//EN"
 "http://www.w3.org/Graphics/SVG/1.1/DTD/svg11.dtd">
<!-- Generated by graphviz version 2.47.0 (20210316.0004)
 -->
<!-- Title: dependencies Pages: 1 -->
<svg width="1853pt" height="284pt"
 viewBox="0.00 0.00 1853.00 284.00" xmlns="http://www.w3.org/2000/svg" xmlns:xlink="http://www.w3.org/1999/xlink">
<g id="graph0" class="graph" transform="scale(1 1) rotate(0) translate(4 280)">
<title>dependencies</title>
<polygon fill="white" stroke="transparent" points="-4,4 -4,-280 1849,-280 1849,4 -4,4"/>
<text text-anchor="start" x="901.51" y="-42.4" font-family="Times-12" font-weight="bold" font-size="14.00">Legend</text>
<polygon fill="#ffffb3" stroke="transparent" points="688.5,-10 688.5,-30 708.5,-30 708.5,-10 688.5,-10"/>
<text text-anchor="start" x="712.13" y="-15.4" font-family="Times-12" font-size="14.00"> &#160;Declarations</text>
<polygon fill="#8dd3c7" stroke="transparent" points="801.5,-10 801.5,-30 821.5,-30 821.5,-10 801.5,-10"/>
<text text-anchor="start" x="825.23" y="-15.4" font-family="Times-12" font-size="14.00"> &#160;Module</text>
<polygon fill="#80b1d3" stroke="transparent" points="887.5,-10 887.5,-30 907.5,-30 907.5,-10 887.5,-10"/>
<text text-anchor="start" x="911.28" y="-15.4" font-family="Times-12" font-size="14.00"> &#160;Bootstrap</text>
<polygon fill="#fdb462" stroke="transparent" points="984.5,-10 984.5,-30 1004.5,-30 1004.5,-10 984.5,-10"/>
<text text-anchor="start" x="1008.17" y="-15.4" font-family="Times-12" font-size="14.00"> &#160;Providers</text>
<polygon fill="#fb8072" stroke="transparent" points="1080.5,-10 1080.5,-30 1100.5,-30 1100.5,-10 1080.5,-10"/>
<text text-anchor="start" x="1104.23" y="-15.4" font-family="Times-12" font-size="14.00"> &#160;Exports</text>
<g id="clust1" class="cluster">
<title>cluster_AppModule</title>
<polygon fill="none" stroke="black" stroke-dasharray="1,5" points="8,-70 8,-268 1837,-268 1837,-70 8,-70"/>
</g>
<g id="clust15" class="cluster">
<title>cluster_AppModule_bootstrap</title>
<polygon fill="none" stroke="black" points="895,-208 895,-260 1019,-260 1019,-208 895,-208"/>
</g>
<g id="clust13" class="cluster">
<title>cluster_AppModule_imports</title>
<polygon fill="none" stroke="black" points="1685,-78 1685,-130 1829,-130 1829,-78 1685,-78"/>
</g>
<g id="clust2" class="cluster">
<title>cluster_AppModule_declarations</title>
<polygon fill="none" stroke="black" points="16,-78 16,-130 1677,-130 1677,-78 16,-78"/>
</g>
<!-- AboutComponent -->
<g id="node1" class="node">
<title>AboutComponent</title>
<polygon fill="#ffffb3" stroke="black" points="1669.33,-122 1552.67,-122 1552.67,-86 1669.33,-86 1669.33,-122"/>
<text text-anchor="middle" x="1611" y="-99.8" font-family="Times,serif" font-size="14.00">AboutComponent</text>
</g>
<!-- AppModule -->
<g id="node11" class="node">
<title>AppModule</title>
<polygon fill="#8dd3c7" stroke="black" points="998.66,-187 995.66,-191 974.66,-191 971.66,-187 915.34,-187 915.34,-151 998.66,-151 998.66,-187"/>
<text text-anchor="middle" x="957" y="-164.8" font-family="Times,serif" font-size="14.00">AppModule</text>
</g>
<!-- AboutComponent&#45;&gt;AppModule -->
<g id="edge1" class="edge">
<title>AboutComponent&#45;&gt;AppModule</title>
<path fill="none" stroke="black" d="M1611,-122.28C1611,-143.32 1611,-175 1611,-175 1611,-175 1008.91,-175 1008.91,-175"/>
<polygon fill="black" stroke="black" points="1008.91,-171.5 998.91,-175 1008.91,-178.5 1008.91,-171.5"/>
</g>
<!-- AppComponent -->
<g id="node2" class="node">
<title>AppComponent</title>
<polygon fill="#ffffb3" stroke="black" points="1534.94,-122 1429.06,-122 1429.06,-86 1534.94,-86 1534.94,-122"/>
<text text-anchor="middle" x="1482" y="-99.8" font-family="Times,serif" font-size="14.00">AppComponent</text>
</g>
<!-- AppComponent&#45;&gt;AppModule -->
<g id="edge2" class="edge">
<title>AppComponent&#45;&gt;AppModule</title>
<path fill="none" stroke="black" d="M1482,-122.11C1482,-141.34 1482,-169 1482,-169 1482,-169 1009.08,-169 1009.08,-169"/>
<polygon fill="black" stroke="black" points="1009.08,-165.5 999.08,-169 1009.08,-172.5 1009.08,-165.5"/>
</g>
<!-- AppointmentBookingComponent -->
<g id="node3" class="node">
<title>AppointmentBookingComponent</title>
<polygon fill="#ffffb3" stroke="black" points="1411.94,-122 1208.06,-122 1208.06,-86 1411.94,-86 1411.94,-122"/>
<text text-anchor="middle" x="1310" y="-99.8" font-family="Times,serif" font-size="14.00">AppointmentBookingComponent</text>
</g>
<!-- AppointmentBookingComponent&#45;&gt;AppModule -->
<g id="edge3" class="edge">
<title>AppointmentBookingComponent&#45;&gt;AppModule</title>
<path fill="none" stroke="black" d="M1310,-122.02C1310,-139.37 1310,-163 1310,-163 1310,-163 1008.88,-163 1008.88,-163"/>
<polygon fill="black" stroke="black" points="1008.88,-159.5 998.88,-163 1008.88,-166.5 1008.88,-159.5"/>
</g>
<!-- ContactComponent -->
<g id="node4" class="node">
<title>ContactComponent</title>
<polygon fill="#ffffb3" stroke="black" points="1190.38,-122 1065.62,-122 1065.62,-86 1190.38,-86 1190.38,-122"/>
<text text-anchor="middle" x="1128" y="-99.8" font-family="Times,serif" font-size="14.00">ContactComponent</text>
</g>
<!-- ContactComponent&#45;&gt;AppModule -->
<g id="edge4" class="edge">
<title>ContactComponent&#45;&gt;AppModule</title>
<path fill="none" stroke="black" d="M1128,-122.24C1128,-137.57 1128,-157 1128,-157 1128,-157 1008.83,-157 1008.83,-157"/>
<polygon fill="black" stroke="black" points="1008.83,-153.5 998.83,-157 1008.83,-160.5 1008.83,-153.5"/>
</g>
<!-- DoctorDashboardComponent -->
<g id="node5" class="node">
<title>DoctorDashboardComponent</title>
<polygon fill="#ffffb3" stroke="black" points="1047.35,-122 866.65,-122 866.65,-86 1047.35,-86 1047.35,-122"/>
<text text-anchor="middle" x="957" y="-99.8" font-family="Times,serif" font-size="14.00">DoctorDashboardComponent</text>
</g>
<!-- DoctorDashboardComponent&#45;&gt;AppModule -->
<g id="edge5" class="edge">
<title>DoctorDashboardComponent&#45;&gt;AppModule</title>
<path fill="none" stroke="black" d="M957,-122.11C957,-122.11 957,-140.99 957,-140.99"/>
<polygon fill="black" stroke="black" points="953.5,-140.99 957,-150.99 960.5,-140.99 953.5,-140.99"/>
</g>
<!-- LandingComponent -->
<g id="node6" class="node">
<title>LandingComponent</title>
<polygon fill="#ffffb3" stroke="black" points="848.99,-122 721.01,-122 721.01,-86 848.99,-86 848.99,-122"/>
<text text-anchor="middle" x="785" y="-99.8" font-family="Times,serif" font-size="14.00">LandingComponent</text>
</g>
<!-- LandingComponent&#45;&gt;AppModule -->
<g id="edge6" class="edge">
<title>LandingComponent&#45;&gt;AppModule</title>
<path fill="none" stroke="black" d="M785,-122.24C785,-137.57 785,-157 785,-157 785,-157 904.92,-157 904.92,-157"/>
<polygon fill="black" stroke="black" points="904.92,-160.5 914.92,-157 904.92,-153.5 904.92,-160.5"/>
</g>
<!-- LoginComponent -->
<g id="node7" class="node">
<title>LoginComponent</title>
<polygon fill="#ffffb3" stroke="black" points="703.28,-122 588.72,-122 588.72,-86 703.28,-86 703.28,-122"/>
<text text-anchor="middle" x="646" y="-99.8" font-family="Times,serif" font-size="14.00">LoginComponent</text>
</g>
<!-- LoginComponent&#45;&gt;AppModule -->
<g id="edge7" class="edge">
<title>LoginComponent&#45;&gt;AppModule</title>
<path fill="none" stroke="black" d="M646,-122.02C646,-139.37 646,-163 646,-163 646,-163 905.06,-163 905.06,-163"/>
<polygon fill="black" stroke="black" points="905.06,-166.5 915.06,-163 905.06,-159.5 905.06,-166.5"/>
</g>
<!-- PatientDashboardComponent -->
<g id="node8" class="node">
<title>PatientDashboardComponent</title>
<polygon fill="#ffffb3" stroke="black" points="570.36,-122 389.64,-122 389.64,-86 570.36,-86 570.36,-122"/>
<text text-anchor="middle" x="480" y="-99.8" font-family="Times,serif" font-size="14.00">PatientDashboardComponent</text>
</g>
<!-- PatientDashboardComponent&#45;&gt;AppModule -->
<g id="edge8" class="edge">
<title>PatientDashboardComponent&#45;&gt;AppModule</title>
<path fill="none" stroke="black" d="M480,-122.11C480,-141.34 480,-169 480,-169 480,-169 905.09,-169 905.09,-169"/>
<polygon fill="black" stroke="black" points="905.09,-172.5 915.09,-169 905.09,-165.5 905.09,-172.5"/>
</g>
<!-- PrescriptionFormComponent -->
<g id="node9" class="node">
<title>PrescriptionFormComponent</title>
<polygon fill="#ffffb3" stroke="black" points="371.82,-122 192.18,-122 192.18,-86 371.82,-86 371.82,-122"/>
<text text-anchor="middle" x="282" y="-99.8" font-family="Times,serif" font-size="14.00">PrescriptionFormComponent</text>
</g>
<!-- PrescriptionFormComponent&#45;&gt;AppModule -->
<g id="edge9" class="edge">
<title>PrescriptionFormComponent&#45;&gt;AppModule</title>
<path fill="none" stroke="black" d="M282,-122.28C282,-143.32 282,-175 282,-175 282,-175 905.29,-175 905.29,-175"/>
<polygon fill="black" stroke="black" points="905.29,-178.5 915.29,-175 905.29,-171.5 905.29,-178.5"/>
</g>
<!-- RegistrationComponent -->
<g id="node10" class="node">
<title>RegistrationComponent</title>
<polygon fill="#ffffb3" stroke="black" points="173.77,-122 24.23,-122 24.23,-86 173.77,-86 173.77,-122"/>
<text text-anchor="middle" x="99" y="-99.8" font-family="Times,serif" font-size="14.00">RegistrationComponent</text>
</g>
<!-- RegistrationComponent&#45;&gt;AppModule -->
<g id="edge10" class="edge">
<title>RegistrationComponent&#45;&gt;AppModule</title>
<path fill="none" stroke="black" d="M99,-122.25C99,-145.02 99,-181 99,-181 99,-181 905.33,-181 905.33,-181"/>
<polygon fill="black" stroke="black" points="905.33,-184.5 915.33,-181 905.33,-177.5 905.33,-184.5"/>
</g>
<!-- AppComponent  -->
<g id="node13" class="node">
<title>AppComponent </title>
<polygon fill="#80b1d3" stroke="black" points="1011.44,-252 902.56,-252 902.56,-216 1011.44,-216 1011.44,-252"/>
<text text-anchor="middle" x="957" y="-229.8" font-family="Times,serif" font-size="14.00">AppComponent </text>
</g>
<!-- AppModule&#45;&gt;AppComponent  -->
<g id="edge12" class="edge">
<title>AppModule&#45;&gt;AppComponent </title>
<path fill="none" stroke="black" stroke-dasharray="1,5" d="M957,-187.11C957,-187.11 957,-205.99 957,-205.99"/>
<polygon fill="black" stroke="black" points="953.5,-205.99 957,-215.99 960.5,-205.99 953.5,-205.99"/>
</g>
<!-- AppRoutingModule -->
<g id="node12" class="node">
<title>AppRoutingModule</title>
<polygon fill="#8dd3c7" stroke="black" points="1821.27,-122 1818.27,-126 1797.27,-126 1794.27,-122 1692.73,-122 1692.73,-86 1821.27,-86 1821.27,-122"/>
<text text-anchor="middle" x="1757" y="-99.8" font-family="Times,serif" font-size="14.00">AppRoutingModule</text>
</g>
<!-- AppRoutingModule&#45;&gt;AppModule -->
<g id="edge11" class="edge">
<title>AppRoutingModule&#45;&gt;AppModule</title>
<path fill="none" stroke="black" d="M1757,-122.25C1757,-145.02 1757,-181 1757,-181 1757,-181 1008.89,-181 1008.89,-181"/>
<polygon fill="black" stroke="black" points="1008.89,-177.5 998.89,-181 1008.89,-184.5 1008.89,-177.5"/>
</g>
</g>
</svg>
