<?xml version="1.0" encoding="UTF-8" standalone="no"?>
<!DOCTYPE svg PUBLIC "-//W3C//DTD SVG 1.1//EN"
 "http://www.w3.org/Graphics/SVG/1.1/DTD/svg11.dtd">
<!-- Generated by graphviz version 2.47.0 (20210316.0004)
 -->
<!-- Title: dependencies Pages: 1 -->
<svg width="1853pt" height="284pt"
 viewBox="0.00 0.00 1853.00 284.00" xmlns="http://www.w3.org/2000/svg" xmlns:xlink="http://www.w3.org/1999/xlink">
<g id="graph0" class="graph" transform="scale(1 1) rotate(0) translate(4 280)">
<title>dependencies</title>
<polygon fill="white" stroke="transparent" points="-4,4 -4,-280 1849,-280 1849,4 -4,4"/>
<text text-anchor="start" x="901.51" y="-42.4" font-family="Times-12" font-weight="bold" font-size="14.00">Legend</text>
<polygon fill="#ffffb3" stroke="transparent" points="688.5,-10 688.5,-30 708.5,-30 708.5,-10 688.5,-10"/>
<text text-anchor="start" x="712.13" y="-15.4" font-family="Times-12" font-size="14.00"> &#160;Declarations</text>
<polygon fill="#8dd3c7" stroke="transparent" points="801.5,-10 801.5,-30 821.5,-30 821.5,-10 801.5,-10"/>
<text text-anchor="start" x="825.23" y="-15.4" font-family="Times-12" font-size="14.00"> &#160;Module</text>
<polygon fill="#80b1d3" stroke="transparent" points="887.5,-10 887.5,-30 907.5,-30 907.5,-10 887.5,-10"/>
<text text-anchor="start" x="911.28" y="-15.4" font-family="Times-12" font-size="14.00"> &#160;Bootstrap</text>
<polygon fill="#fdb462" stroke="transparent" points="984.5,-10 984.5,-30 1004.5,-30 1004.5,-10 984.5,-10"/>
<text text-anchor="start" x="1008.17" y="-15.4" font-family="Times-12" font-size="14.00"> &#160;Providers</text>
<polygon fill="#fb8072" stroke="transparent" points="1080.5,-10 1080.5,-30 1100.5,-30 1100.5,-10 1080.5,-10"/>
<text text-anchor="start" x="1104.23" y="-15.4" font-family="Times-12" font-size="14.00"> &#160;Exports</text>
<g id="clust1" class="cluster">
<title>cluster_AppModule</title>
<polygon fill="none" stroke="black" stroke-dasharray="1,5" points="8,-70 8,-268 1837,-268 1837,-70 8,-70"/>
</g>
<g id="clust2" class="cluster">
<title>cluster_AppModule_declarations</title>
<polygon fill="none" stroke="black" points="168,-78 168,-130 1829,-130 1829,-78 168,-78"/>
</g>
<g id="clust13" class="cluster">
<title>cluster_AppModule_imports</title>
<polygon fill="none" stroke="black" points="16,-78 16,-130 160,-130 160,-78 16,-78"/>
</g>
<g id="clust15" class="cluster">
<title>cluster_AppModule_bootstrap</title>
<polygon fill="none" stroke="black" points="875,-208 875,-260 999,-260 999,-208 875,-208"/>
</g>
<!-- AboutComponent -->
<g id="node1" class="node">
<title>AboutComponent</title>
<polygon fill="#ffffb3" stroke="black" points="1821.33,-122 1704.67,-122 1704.67,-86 1821.33,-86 1821.33,-122"/>
<text text-anchor="middle" x="1763" y="-99.8" font-family="Times,serif" font-size="14.00">AboutComponent</text>
</g>
<!-- AppModule -->
<g id="node11" class="node">
<title>AppModule</title>
<polygon fill="#8dd3c7" stroke="black" points="978.66,-187 975.66,-191 954.66,-191 951.66,-187 895.34,-187 895.34,-151 978.66,-151 978.66,-187"/>
<text text-anchor="middle" x="937" y="-164.8" font-family="Times,serif" font-size="14.00">AppModule</text>
</g>
<!-- AboutComponent&#45;&gt;AppModule -->
<g id="edge1" class="edge">
<title>AboutComponent&#45;&gt;AppModule</title>
<path fill="none" stroke="black" d="M1763,-122.25C1763,-145.02 1763,-181 1763,-181 1763,-181 988.81,-181 988.81,-181"/>
<polygon fill="black" stroke="black" points="988.81,-177.5 978.81,-181 988.81,-184.5 988.81,-177.5"/>
</g>
<!-- AppComponent -->
<g id="node2" class="node">
<title>AppComponent</title>
<polygon fill="#ffffb3" stroke="black" points="1686.94,-122 1581.06,-122 1581.06,-86 1686.94,-86 1686.94,-122"/>
<text text-anchor="middle" x="1634" y="-99.8" font-family="Times,serif" font-size="14.00">AppComponent</text>
</g>
<!-- AppComponent&#45;&gt;AppModule -->
<g id="edge2" class="edge">
<title>AppComponent&#45;&gt;AppModule</title>
<path fill="none" stroke="black" d="M1634,-122.28C1634,-143.32 1634,-175 1634,-175 1634,-175 988.77,-175 988.77,-175"/>
<polygon fill="black" stroke="black" points="988.77,-171.5 978.77,-175 988.77,-178.5 988.77,-171.5"/>
</g>
<!-- AppointmentBookingComponent -->
<g id="node3" class="node">
<title>AppointmentBookingComponent</title>
<polygon fill="#ffffb3" stroke="black" points="1563.94,-122 1360.06,-122 1360.06,-86 1563.94,-86 1563.94,-122"/>
<text text-anchor="middle" x="1462" y="-99.8" font-family="Times,serif" font-size="14.00">AppointmentBookingComponent</text>
</g>
<!-- AppointmentBookingComponent&#45;&gt;AppModule -->
<g id="edge3" class="edge">
<title>AppointmentBookingComponent&#45;&gt;AppModule</title>
<path fill="none" stroke="black" d="M1462,-122.11C1462,-141.34 1462,-169 1462,-169 1462,-169 989.08,-169 989.08,-169"/>
<polygon fill="black" stroke="black" points="989.08,-165.5 979.08,-169 989.08,-172.5 989.08,-165.5"/>
</g>
<!-- ContactComponent -->
<g id="node4" class="node">
<title>ContactComponent</title>
<polygon fill="#ffffb3" stroke="black" points="1342.38,-122 1217.62,-122 1217.62,-86 1342.38,-86 1342.38,-122"/>
<text text-anchor="middle" x="1280" y="-99.8" font-family="Times,serif" font-size="14.00">ContactComponent</text>
</g>
<!-- ContactComponent&#45;&gt;AppModule -->
<g id="edge4" class="edge">
<title>ContactComponent&#45;&gt;AppModule</title>
<path fill="none" stroke="black" d="M1280,-122.02C1280,-139.37 1280,-163 1280,-163 1280,-163 988.72,-163 988.72,-163"/>
<polygon fill="black" stroke="black" points="988.72,-159.5 978.72,-163 988.72,-166.5 988.72,-159.5"/>
</g>
<!-- DoctorDashboardComponent -->
<g id="node5" class="node">
<title>DoctorDashboardComponent</title>
<polygon fill="#ffffb3" stroke="black" points="1199.35,-122 1018.65,-122 1018.65,-86 1199.35,-86 1199.35,-122"/>
<text text-anchor="middle" x="1109" y="-99.8" font-family="Times,serif" font-size="14.00">DoctorDashboardComponent</text>
</g>
<!-- DoctorDashboardComponent&#45;&gt;AppModule -->
<g id="edge5" class="edge">
<title>DoctorDashboardComponent&#45;&gt;AppModule</title>
<path fill="none" stroke="black" d="M1109,-122.24C1109,-137.57 1109,-157 1109,-157 1109,-157 989.08,-157 989.08,-157"/>
<polygon fill="black" stroke="black" points="989.08,-153.5 979.08,-157 989.08,-160.5 989.08,-153.5"/>
</g>
<!-- LandingComponent -->
<g id="node6" class="node">
<title>LandingComponent</title>
<polygon fill="#ffffb3" stroke="black" points="1000.99,-122 873.01,-122 873.01,-86 1000.99,-86 1000.99,-122"/>
<text text-anchor="middle" x="937" y="-99.8" font-family="Times,serif" font-size="14.00">LandingComponent</text>
</g>
<!-- LandingComponent&#45;&gt;AppModule -->
<g id="edge6" class="edge">
<title>LandingComponent&#45;&gt;AppModule</title>
<path fill="none" stroke="black" d="M937,-122.11C937,-122.11 937,-140.99 937,-140.99"/>
<polygon fill="black" stroke="black" points="933.5,-140.99 937,-150.99 940.5,-140.99 933.5,-140.99"/>
</g>
<!-- LoginComponent -->
<g id="node7" class="node">
<title>LoginComponent</title>
<polygon fill="#ffffb3" stroke="black" points="855.28,-122 740.72,-122 740.72,-86 855.28,-86 855.28,-122"/>
<text text-anchor="middle" x="798" y="-99.8" font-family="Times,serif" font-size="14.00">LoginComponent</text>
</g>
<!-- LoginComponent&#45;&gt;AppModule -->
<g id="edge7" class="edge">
<title>LoginComponent&#45;&gt;AppModule</title>
<path fill="none" stroke="black" d="M798,-122.24C798,-137.57 798,-157 798,-157 798,-157 885.3,-157 885.3,-157"/>
<polygon fill="black" stroke="black" points="885.3,-160.5 895.3,-157 885.3,-153.5 885.3,-160.5"/>
</g>
<!-- PatientDashboardComponent -->
<g id="node8" class="node">
<title>PatientDashboardComponent</title>
<polygon fill="#ffffb3" stroke="black" points="722.36,-122 541.64,-122 541.64,-86 722.36,-86 722.36,-122"/>
<text text-anchor="middle" x="632" y="-99.8" font-family="Times,serif" font-size="14.00">PatientDashboardComponent</text>
</g>
<!-- PatientDashboardComponent&#45;&gt;AppModule -->
<g id="edge8" class="edge">
<title>PatientDashboardComponent&#45;&gt;AppModule</title>
<path fill="none" stroke="black" d="M632,-122.02C632,-139.37 632,-163 632,-163 632,-163 885.23,-163 885.23,-163"/>
<polygon fill="black" stroke="black" points="885.23,-166.5 895.23,-163 885.23,-159.5 885.23,-166.5"/>
</g>
<!-- PrescriptionFormComponent -->
<g id="node9" class="node">
<title>PrescriptionFormComponent</title>
<polygon fill="#ffffb3" stroke="black" points="523.82,-122 344.18,-122 344.18,-86 523.82,-86 523.82,-122"/>
<text text-anchor="middle" x="434" y="-99.8" font-family="Times,serif" font-size="14.00">PrescriptionFormComponent</text>
</g>
<!-- PrescriptionFormComponent&#45;&gt;AppModule -->
<g id="edge9" class="edge">
<title>PrescriptionFormComponent&#45;&gt;AppModule</title>
<path fill="none" stroke="black" d="M434,-122.11C434,-141.34 434,-169 434,-169 434,-169 884.98,-169 884.98,-169"/>
<polygon fill="black" stroke="black" points="884.98,-172.5 894.98,-169 884.98,-165.5 884.98,-172.5"/>
</g>
<!-- RegistrationComponent -->
<g id="node10" class="node">
<title>RegistrationComponent</title>
<polygon fill="#ffffb3" stroke="black" points="325.77,-122 176.23,-122 176.23,-86 325.77,-86 325.77,-122"/>
<text text-anchor="middle" x="251" y="-99.8" font-family="Times,serif" font-size="14.00">RegistrationComponent</text>
</g>
<!-- RegistrationComponent&#45;&gt;AppModule -->
<g id="edge10" class="edge">
<title>RegistrationComponent&#45;&gt;AppModule</title>
<path fill="none" stroke="black" d="M251,-122.28C251,-143.32 251,-175 251,-175 251,-175 885.12,-175 885.12,-175"/>
<polygon fill="black" stroke="black" points="885.12,-178.5 895.12,-175 885.12,-171.5 885.12,-178.5"/>
</g>
<!-- AppComponent  -->
<g id="node13" class="node">
<title>AppComponent </title>
<polygon fill="#80b1d3" stroke="black" points="991.44,-252 882.56,-252 882.56,-216 991.44,-216 991.44,-252"/>
<text text-anchor="middle" x="937" y="-229.8" font-family="Times,serif" font-size="14.00">AppComponent </text>
</g>
<!-- AppModule&#45;&gt;AppComponent  -->
<g id="edge12" class="edge">
<title>AppModule&#45;&gt;AppComponent </title>
<path fill="none" stroke="black" stroke-dasharray="1,5" d="M937,-187.11C937,-187.11 937,-205.99 937,-205.99"/>
<polygon fill="black" stroke="black" points="933.5,-205.99 937,-215.99 940.5,-205.99 933.5,-205.99"/>
</g>
<!-- AppRoutingModule -->
<g id="node12" class="node">
<title>AppRoutingModule</title>
<polygon fill="#8dd3c7" stroke="black" points="152.27,-122 149.27,-126 128.27,-126 125.27,-122 23.73,-122 23.73,-86 152.27,-86 152.27,-122"/>
<text text-anchor="middle" x="88" y="-99.8" font-family="Times,serif" font-size="14.00">AppRoutingModule</text>
</g>
<!-- AppRoutingModule&#45;&gt;AppModule -->
<g id="edge11" class="edge">
<title>AppRoutingModule&#45;&gt;AppModule</title>
<path fill="none" stroke="black" d="M88,-122.25C88,-145.02 88,-181 88,-181 88,-181 885.19,-181 885.19,-181"/>
<polygon fill="black" stroke="black" points="885.19,-184.5 895.19,-181 885.19,-177.5 885.19,-184.5"/>
</g>
</g>
</svg>
